<svg xmlns="http://www.w3.org/2000/svg" width="410" height="210" viewBox="0 0 410 210" role="img"><title>A riffle shuffle</title><desc>Two packets of cards, purple and orange, bend into an arch and interleave, the way a riffle shuffle does.</desc><g transform="translate(-750 -100)"><path d="M765 300A190 190 0 0 1 971.6 110.7" fill="none" stroke="#A855F7" stroke-width="7" stroke-linecap="round"/><path d="M985.4 112.5A190 190 0 0 1 1145 300" fill="none" stroke="#F97316" stroke-width="7" stroke-linecap="round"/><path d="M778 300A177 177 0 0 1 925.7 125.4" fill="none" stroke="#A855F7" stroke-width="7" stroke-linecap="round"/><path d="M939.6 123.7A177 177 0 0 1 1132 300" fill="none" stroke="#F97316" stroke-width="7" stroke-linecap="round"/><path d="M791 300A164 164 0 0 1 969.3 136.6" fill="none" stroke="#A855F7" stroke-width="7" stroke-linecap="round"/><path d="M983.2 138.4A164 164 0 0 1 1119 300" fill="none" stroke="#F97316" stroke-width="7" stroke-linecap="round"/><path d="M804 300A151 151 0 0 1 928 151.4" fill="none" stroke="#A855F7" stroke-width="7" stroke-linecap="round"/><path d="M941.8 149.6A151 151 0 0 1 1106 300" fill="none" stroke="#F97316" stroke-width="7" stroke-linecap="round"/><path d="M817 300A138 138 0 0 1 967 162.5" fill="none" stroke="#A855F7" stroke-width="7" stroke-linecap="round"/><path d="M980.9 164.5A138 138 0 0 1 1093 300" fill="none" stroke="#F97316" stroke-width="7" stroke-linecap="round"/><path d="M830 300A125 125 0 0 1 930.3 177.5" fill="none" stroke="#A855F7" stroke-width="7" stroke-linecap="round"/><path d="M944.1 175.5A125 125 0 0 1 1080 300" fill="none" stroke="#F97316" stroke-width="7" stroke-linecap="round"/><path d="M843 300A112 112 0 0 1 964.8 188.4" fill="none" stroke="#A855F7" stroke-width="7" stroke-linecap="round"/><path d="M978.6 190.5A112 112 0 0 1 1067 300" fill="none" stroke="#F97316" stroke-width="7" stroke-linecap="round"/><path d="M856 300A99 99 0 0 1 932.6 203.6" fill="none" stroke="#A855F7" stroke-width="7" stroke-linecap="round"/><path d="M946.4 201.4A99 99 0 0 1 1054 300" fill="none" stroke="#F97316" stroke-width="7" stroke-linecap="round"/><path d="M869 300A86 86 0 0 1 962.5 214.3" fill="none" stroke="#A855F7" stroke-width="7" stroke-linecap="round"/><path d="M976.3 216.7A86 86 0 0 1 1041 300" fill="none" stroke="#F97316" stroke-width="7" stroke-linecap="round"/><path d="M882 300A73 73 0 0 1 934.9 229.8" fill="none" stroke="#A855F7" stroke-width="7" stroke-linecap="round"/><path d="M948.6 227.3A73 73 0 0 1 1028 300" fill="none" stroke="#F97316" stroke-width="7" stroke-linecap="round"/></g></svg>
